<svg width="535" height="240" viewBox="0 0 535 240" fill="none" xmlns="http://www.w3.org/2000/svg">
<path d="M363.001 156.992C363.001 173.884 363.429 179.074 371.533 179.074C373.266 179.074 374.281 178.935 377.895 178.637L378.622 187.874C374.57 188.599 371.831 188.739 370.676 188.739C351.599 188.739 351.162 179.93 351.162 154.239V82.2076L363.019 80.9053V156.974L363.001 156.992Z" fill="#1C2B59" style="fill:#1C2B59;fill:color(display-p3 0.1098 0.1686 0.3490);fill-opacity:1;"/>
<path d="M2.93419 217.769C21.359 230.243 47.6456 224.736 70.6906 209.584C93.7263 194.441 112.486 195.464 112.486 195.464C129.141 193.957 141.493 202.701 140.049 214.997C138.624 227.294 124.586 236.996 107.298 240C152.177 236.744 157.85 207.054 157.85 207.054C164.491 183.437 138.512 168.917 106.041 176.6C140.468 139.292 168.255 136.548 168.255 136.548C193.861 128.725 212.892 144.5 210.758 171.782C208.635 199.054 187.117 224.057 160.551 235.312C229.5 216.058 238.042 149.607 238.042 149.607C252.321 73.8269 165.777 55.6143 93.3258 157.272C38.9734 233.554 0 214.923 0 214.923C0 214.923 1.24819 216.69 2.93419 217.769Z" fill="#1C2B59" style="fill:#1C2B59;fill:color(display-p3 0.1098 0.1686 0.3490);fill-opacity:1;"/>
<path d="M15.9099 210.458C15.9099 210.458 81.7754 188.646 95.785 106.364C104.634 54.3958 120.255 25.3469 149.644 0C149.644 0 61.7484 19.7473 57.5567 102.597C53.6538 179.614 38.9083 192.292 15.9099 210.458Z" fill="#005BAB" style="fill:#005BAB;fill:color(display-p3 0.0000 0.3569 0.6706);fill-opacity:1;"/>
<path d="M25.5784 192.274C25.5784 192.274 48.3999 167.671 48.1949 108.643C48.0738 72.6363 56.0753 51.2798 73.8947 29.3745C73.8947 29.3745 29.0435 53.0564 34.5952 113.275C36.7004 136.092 37.9579 169.01 25.5691 192.274H25.5784Z" fill="#008BD5" style="fill:#008BD5;fill:color(display-p3 0.0000 0.5451 0.8353);fill-opacity:1;"/>
<path d="M99.4832 129.934C99.4832 129.934 106.507 117.758 111.602 86.9793C119.846 37.2064 162.955 17.0312 162.955 17.0312C162.955 17.0312 136.799 46.2755 131.964 78.2451C126.571 113.898 99.4739 129.934 99.4739 129.934H99.4832Z" fill="#C8C9CA" style="fill:#C8C9CA;fill:color(display-p3 0.7843 0.7882 0.7922);fill-opacity:1;"/>
<path d="M294.313 118.251V109.945H305.668V107.694C305.761 101.871 306.236 97.1553 307.074 93.5369C307.922 89.9279 309.375 87.0258 311.443 84.8399C313.511 82.6541 316.063 81.1472 319.091 80.3287C322.127 79.5008 326.067 79.0916 330.902 79.0916H336.053L337.46 88.1048H330.827C328.331 88.1048 326.3 88.3374 324.726 88.8117C323.152 89.2861 321.866 89.9186 320.888 90.7093C319.901 91.5092 319.174 92.7835 318.699 94.5508C318.234 96.3088 317.917 98.1226 317.749 99.9737C317.582 101.834 317.498 104.401 317.498 107.685V109.936H335.056V118.242H317.498V187.26H305.649V118.242H294.294L294.313 118.251Z" fill="#1C2B59" style="fill:#1C2B59;fill:color(display-p3 0.1098 0.1686 0.3490);fill-opacity:1;"/>
<path d="M402.906 81.9099V95.853H391.057V81.9099H402.906ZM402.906 109.945V187.278H391.057V109.945H402.906Z" fill="#1C2B59" style="fill:#1C2B59;fill:color(display-p3 0.1098 0.1686 0.3490);fill-opacity:1;"/>
<path d="M454.454 189.027C443.453 189.027 434.781 185.39 428.428 178.116C422.085 170.843 418.909 160.955 418.909 148.463C418.909 136.91 422.085 127.376 428.428 119.833C434.781 112.298 442.978 108.392 453.038 108.103C462.633 108.103 470.215 111.461 475.785 118.177C481.356 124.893 484.15 133.971 484.15 145.431C484.15 145.803 484.122 146.668 484.076 147.998C484.029 149.337 484.01 150.24 484.01 150.705H431.037C431.037 159.253 433.272 166.08 437.743 171.205C442.205 176.321 447.897 178.879 454.818 178.879C463.564 178.879 471.743 176.303 479.362 171.14L483.032 179.726C475.785 185.921 466.266 189.018 454.464 189.018L454.454 189.027ZM431.465 142.547H472.721C472.721 134.566 470.904 128.427 467.29 124.13C463.667 119.833 458.897 117.684 452.973 117.684C447.049 117.684 442.205 119.926 438.302 124.409C434.399 128.892 432.117 134.938 431.465 142.538V142.547Z" fill="#1C2B59" style="fill:#1C2B59;fill:color(display-p3 0.1098 0.1686 0.3490);fill-opacity:1;"/>
<path d="M498.607 187.269V127.758C498.607 125.693 498.57 122.688 498.504 118.744C498.43 114.8 498.393 111.861 498.393 109.936H508.415L509.328 123.321C514.219 114.4 521.745 109.936 531.898 109.936H534.152L535 120.716H532.178C525.266 120.716 519.919 122.725 516.128 126.734C512.337 130.753 510.455 135.813 510.455 141.915V187.269H498.607Z" fill="#1C2B59" style="fill:#1C2B59;fill:color(display-p3 0.1098 0.1686 0.3490);fill-opacity:1;"/>
</svg>
