<?xml version="1.0" encoding="utf-8"?>
<!-- Generator: Adobe Illustrator 15.1.0, SVG Export Plug-In . SVG Version: 6.00 Build 0)  -->
<!DOCTYPE svg PUBLIC "-//W3C//DTD SVG 1.1//EN" "http://www.w3.org/Graphics/SVG/1.1/DTD/svg11.dtd">
<svg version="1.1" id="レイヤー_1" xmlns="http://www.w3.org/2000/svg" xmlns:xlink="http://www.w3.org/1999/xlink" x="0px"
	 y="0px" width="1417.323px" height="231.751px" viewBox="0 0 1417.323 231.751" enable-background="new 0 0 1417.323 231.751"
	 xml:space="preserve">
<g>
	<path d="M641.863,67.367c-1.228,0.473-2.932-0.249-3.665,0.473c3.916,3.427,8.563,6.113,11.967,10.274
		c3.665,4.881,7.569,11.229,4.16,17.343c-0.967,1.727-2.694,2.683-3.427,4.375c3.902,0.261,7.568,0.495,11.244-0.45
		c2.683-7.591,3.676-15.902,5.377-23.706c0.5-2.705,0.971-5.625,0.732-8.074L641.863,67.367 M755.483,39.75
		c-9.79,6.359-18.825,13.452-29.088,18.338c-7.092-2.226-13.928-4.886-21.257-6.363c-0.979-0.25-2.185-0.733-3.166,0l0.732,21.751
		c0,40.801,4.633,85.504-16.859,118.489c0,0.473,0.733,0.732,1.204,0.473c7.358-4.163,14.189-10.001,20.042-16.849
		c17.866-19.791,18.832-46.913,19.07-74.27l0.234-0.483c3.665-0.51,7.097-0.51,10.761,0c0.945,4.399-0.26,9.775,0.234,13.916
		l-0.234,71.595c0.234,2.199-0.498,5.131,1.717,6.351c6.582,0.734,13.677,0,20.037-1.22c1.443-0.495,2.188-1.973,2.437-3.427
		c-0.749-29.071-0.749-57.895-0.749-86.98c4.887-0.744,9.779-0.234,14.66-0.483c0.983-0.495,1.95-1.206,1.482-2.683
		c-5.396-5.864-10.996-11.019-16.625-16.364l-1.479-0.495c-4.859,4.387-8.772,10.001-12.943,14.909
		c-6.353,1.229-12.201,0.246-18.8,0.246l-0.732-0.744l-0.238-31.021l0.473-0.483c15.877-1.231,31.52-3.181,47.413-5.131
		c0.468-0.5,1.949-0.25,1.949-1.232c-1.949-2.683-4.659-5.131-7.082-7.318C764.029,46.842,760.115,42.195,755.483,39.75z
		 M671.918,41.723c0.971,0.472,2.696,0.472,2.932,1.938c0,2.449-3.404,1.954-3.404,4.41c-0.744,4.849-0.495,10.018-0.744,14.91
		c0.981,0.722,2.434,0.722,3.913,0.473c3.65-3.666,6.36-8.064,10.003-11.729l1.488,0.249c4.609,3.888,8.784,8.297,12.921,12.934
		c0.246,0.744-0.249,1.727-0.72,2.21c-6.848,1.231-14.189-0.235-20.266,0.722c0.711,1.217,1.704,0,2.683,1.217
		c2.688,1.491,7.071,1.986,9.519,3.914l-0.26,1.228c-7.071,8.552-14.657,17.121-21.964,25.184l0.471,0.711
		c2.956-0.261,5.144,0.744,7.568-0.261c3.428-3.631,5.872-8.041,9.787-10.973l0.971,0.249c4.16,3.655,9.291,8.075,12.957,12.212
		c0.732,1.233-0.5,2.21-1.232,2.683l-27.355,0.249l-0.483,0.746v19.779c0.981,0.744,2.434,0.744,3.664,0.495l10.025-11.751
		l0.959,0.249c4.893,3.914,9.79,8.309,13.923,12.957c0.5,1.231-0.495,2.199-1.466,2.683h-26.622
		c-0.732,0.982-0.483,2.459-0.234,3.43c9.279,3.416,20.509,8.299,24.435,18.573c1.205,3.902,0.722,8.534-1.973,11.466
		c-2.437,2.948-6.09,3.914-9.79,2.948c-9.755-5.619-5.357-18.825-12.177-26.389l-0.495,0.495l-0.249,48.862
		c-1.466,4.137-6.35,2.932-9.779,3.643c-4.397,0-10.024,2.198-13.194-1.206l-0.733-3.181c0.499-10.984,1.231-23.207,0.499-33.742
		c-8.301,9.068-17.853,18.125-28.104,23.468c-0.483,0-0.732-0.249-0.732-0.473c9.046-15.144,16.848-30.786,22.724-47.147
		c-1.239-1.726-4.148-0.747-6.114-0.971c-3.664,0.224-7.813,0.473-11.479,0.224c-0.99-0.979-0.99-2.683-1.466-3.889l0.476-0.494
		c8.806-0.499,15.901,0.718,24.437,0l0.495-0.994v-19.53l-0.495-0.251c-8.04-0.249-16.599-0.249-24.437,0
		c-0.959-1.228-1.692-2.683-1.22-4.159c6.624-0.487,12.238,0.234,19.059-0.261c-0.494-1.194-1.442-2.176-1.938-3.404
		c-1.966-9.541-2.698-19.309-6.125-28.078c-2.683-1.715-5.853-0.26-8.786-0.748c-0.744-1.216-1.217-2.694-1.217-4.148
		c8.064-0.733,16.361,0.733,23.93,0l0.733-0.733c-0.238-7.815-0.473-15.628-0.971-22.97l0.732-0.733
		C655.546,39.501,663.605,40.495,671.918,41.723z"/>
	<path fill="#0079C3" d="M1302.32,90.446c-3.167,4.395-4.399,9.763-7.331,14.151c-5.131,0.755-10.496,1.228-15.404,2.21
		c2.932,4.137,7.58,7.813,11.267,11.706c-0.495,5.402-2.693,10.272-2.21,15.65c4.621-1.95,9.033-5.378,13.917-7.093
		c4.646,2.21,9.029,5.392,13.927,6.847c-0.732-5.132-1.717-10.252-2.438-15.404c2.934-4.143,7.815-7.32,10.996-11.706
		c-5.142-1.231-10.745-0.982-15.889-2.448C1306.956,99.713,1304.991,94.594,1302.32,90.446 M1241.732,48.415
		c-25.433,10.747-51.063,36.414-51.063,65.71c-1.208,29.083,20.026,53.995,44.711,66.952c12.224,6.347,25.161,11.479,39.346,13.183
		c-25.913-9.27-48.636-35.424-52.302-62.541h0.234c13.928,19.788,36.179,27.617,58.642,31.021l0.5-0.239
		c-17.121-8.063-28.577-25.651-29.322-43.987c-1.231-20.503,10.995-39.313,28.822-48.347c-22.463,3.16-44.949,10.749-58.876,30.776
		c2.683-26.638,25.891-52.777,51.074-62.307C1262.007,40.117,1251.744,44.005,1241.732,48.415z M1330.908,38.391l-0.251,0.245
		c15.133,6.352,30.044,17.348,40.067,32.003c5.865,9.295,10.5,19.297,11.729,30.304c-6.336-9.529-16.387-16.85-26.151-21.507
		c-10.512-4.882-21.729-8.297-33.458-9.27c18.563,9.034,30.787,28.339,29.31,49.113c-0.476,18.299-12.971,35.158-29.31,43.46
		c22.946-3.404,45.447-10.984,59.848-31.259c-3.432,27.354-26.39,53.011-52.278,62.778c18.819-2.932,35.653-9.768,51.307-20.752
		c22.963-16.384,37.358-42.277,31.011-71.109C1403.71,66.006,1364.6,44.277,1330.908,38.391z M1406.632,67.461
		c5.614,13.454,9.777,27.379,10.511,42.75c-0.477-0.249,0.057,0.509,0,0.509c2.683,47.383-24.688,91.363-67.204,110.905
		c-38.351,18.089-88.664,11.479-120.184-16.115c-37.869-31.271-51.562-82.826-35.187-129.006
		c13.694-42.278,58.154-74.271,102.136-75.499C1343.119-0.932,1386.851,25.207,1406.632,67.461z"/>
	<path fill="#0079C3" d="M114.391,89.958c-2.683,4.647-4.375,9.779-7.565,14.188L92.4,106.074l-0.733,0.733
		c3.688,3.687,7.096,6.847,10.995,10.522c-0.212,5.365-1.95,10.235-2.433,15.617l0.234,0.495c4.881-2.2,9.295-4.884,14.161-7.094
		c4.671,2.21,9.057,4.894,13.927,6.848l0.261-0.487c-0.473-5.378-2.445-10.26-2.2-15.628c3.666-2.956,7.591-7.093,10.735-10.522
		c-5.105-1.455-10.485-1.701-15.628-2.661C119.296,99.238,117.323,94.122,114.391,89.958 M144.94,38.413
		c25.406,10.024,46.181,35.669,50.08,62.304l-0.261,0.249c-6.076-10.024-16.1-17.104-25.652-22.002
		c-10.24-4.882-21.48-8.297-32.725-9.292c15.133,7.591,26.4,23.219,28.112,39.841c2.674,22.229-9.053,42.504-28.845,52.282
		l0.733,0.235c22.485-3.655,44.959-11.257,58.638-31.766c-3.417,27.133-25.913,53.517-51.546,63.522
		c19.531-3.17,37.124-11.233,53.012-22.962c21.02-16.61,33.957-40.055,28.826-66.679C218.003,67.234,178.897,44.028,144.94,38.413z
		 M55.277,47.209C28.393,58.688,1.532,85.561,2.998,117.081c-0.245,28.588,22.724,52.517,46.914,64.729
		c10.984,5.38,22.958,10.274,35.159,11.502c-25.395-10.024-47.382-35.914-50.552-62.803c0.472,0.5,0.971,1.232,1.205,1.966
		c14.426,19.058,35.918,26.861,57.67,29.32c-13.439-6.598-24.933-20.279-27.616-34.724C61.64,106.807,68.46,87.76,84.835,75.052
		c2.456-1.964,5.875-3.902,8.063-5.619c-17.097,2.212-32.985,7.58-46.664,18.327c-4.624,3.664-8.785,8.795-11.978,13.205
		c3.926-26.884,24.923-52.773,50.578-62.802C74.574,39.619,64.572,43.061,55.277,47.209z M218.714,66.256
		c6.597,15.393,11.229,32.027,10.519,50.092c0.238,30.775-11.23,57.159-32.015,79.648c-30.549,32.477-77.923,43.967-120.211,29.307
		C35.251,211.625,2.503,168.625,0.315,124.894c-3.182-44.96,17.838-86.243,56.666-109.451
		c36.413-23.457,92.852-19.546,126.314,7.341C198.685,34.253,210.911,50.142,218.714,66.256z"/>
	<path d="M561.496,114.882l-56.7-0.238c-0.709,0.476-1.941-0.246-2.675,0.732l-0.257,49.35l0.99,1.466c-0.258,0-0.733,0-0.99,0.224
		c0.257,1.229-0.238,2.943,0.495,3.938l57.905,0.222l1.953-0.722l-0.223-54.478L561.496,114.882 M508.224,58.193
		c-1.95,0.246-4.387-0.473-5.628,0.744l-0.476,49.841l0.476,0.733c19.804,0.227,40.079,0.476,58.899-0.495
		c0.499-16.6,0.25-33.707-0.25-50.824H508.224z M579.583,45.732c4.871,3.416,9.744,7.091,14.637,11.007
		c1.229,4.658-5.841,5.13-6.336,9.517l1.205,118.236c-0.981,5.393-6.834,3.925-10.733,4.908c-4.659,0-9.541,1.217-13.928-0.249
		c-2.933-3.428-1.232-8.797-2.211-12.956l-1.716-0.476c-19.032-0.246-39.816-0.735-58.638,0.476
		c-1.443,3.91,1.479,10.273-3.407,12.222c-6.099,1.468-12.696,1.217-19.305,1.706c-1.454-0.238-2.92-0.489-3.664-2.199l-0.484-2.2
		c0.484-18.079,0.261-36.39,0.484-54.231V59.919l0.249-15.643h2.21c8.546,2.932,17.083,5.604,25.64,8.797
		c19.298,0.733,37.385,0.238,56.915,0c4.411-3.193,6.858-8.313,11.245-11.49C574.667,42.078,576.877,44.515,579.583,45.732z"/>
	<path d="M394.609,125.143c-6.336-0.249-12.934-0.495-19.293,0c-1.22,11.963-3.169,24.19-3.431,36.141l20.053,0.273l0.733-0.522
		c1.228-11.701,1.704-23.185,2.437-35.408L394.609,125.143 M331.595,125.143c-2.448,11.479-3.192,23.691-4.893,35.421l0.257,0.72
		c7.069,0,13.666,0.273,20.263-0.249c1.704-11.701,2.437-23.929,3.676-35.892C345.05,124.421,337.943,124.648,331.595,125.143z
		 M379.238,86.781c-1.723,10.758-2.683,21.998-3.178,32.736c5.876,0.744,12.473,0.484,18.549,0.246l0.498-0.483
		c0.99-10.501,1.228-21.741,1.466-32.241C390.472,86.282,385.341,86.532,379.238,86.781z M337.943,86.532
		c-0.482,0.249-1.228,0-1.455,0.733c-1.726,10.522-2.954,21.514-4.16,32.252c6.099,0.744,12.935,0.744,19.047,0l2.445-22.724
		c0.238-3.419,0.973-6.823,0.473-10.262H337.943z M342.826,44.515c0.733,0.495,1.231,1.466,0.733,2.199
		c-2.199,2.185-6.098,0.979-7.32,4.41l-3.676,6.821l0.249,0.495h71.587c7.091,2.199,8.797-6.843,13.194-10.248
		c1.466-1.478,2.199-4.164,4.632-3.915c6.125,5.143,12.946,9.779,18.326,15.889c0.473,0.959-0.238,1.938-0.733,2.686l-1.217,0.246
		c-35.668-0.246-73.786-0.495-109.7,0.238c-2.686,3.167-5.619,6.832-8.064,10.498v0.722c5.865,2.708,11.726,5.142,17.851,7.341
		c20.025-0.246,37.867,0.732,57.884-0.495l10.025-9.528c3.899,0.982,6.598,4.42,10.263,6.358c2.932,2.448,6.832,4.646,9.03,8.052
		c-0.473,2.944-4.636,2.709-5.604,5.392c-0.249,8.064-0.993,16.115-0.495,24.202c3.427-2.954,5.366-7.097,8.792-9.79l2.449,1.466
		l13.421,14.165c0.256,1.228-0.477,2.456-1.705,2.932h-22.958l-0.733,0.733l-1.953,31.27c0.249,0.246,0.487,0.495,0.722,0.246
		l7.824-9.29c2.699,0.271,4.398,2.683,6.59,4.658l9.774,10.497c0.494,0.733,0.494,1.727,0,2.437l-1.466,1.217l-23.94,0.261
		c-1.95,5.614-1.716,12.224-4.161,17.592c-6.351,13.913-22.474,11.952-35.411,12.935c-3.167-0.982-2.199-5.119-4.16-7.569
		c-2.683-5.614-8.559-10.25-13.667-13.688c-0.499-0.473,0.234-1.206,0.71-1.468h27.368c1.715-0.238,3.181-0.971,4.174-2.671
		c0.473-1.453,1.206-3.182,0.71-4.896l-1.458-0.495h-64.015c-0.733,0-1.232,0.756-1.232,1.229
		c-0.966,4.163-0.233,9.283-4.375,11.256c-6.109,0.96-12.717,0.96-19.058,0.483c-1.228-0.257-2.222-1.228-2.694-2.21
		c2.199-17.343,5.615-34.448,7.58-52.03l-0.746-0.495h-19.534c-0.99-1.209-1.961-3.653-1.228-5.368
		c7.092,0.237,14.898,1.205,22.24,0.237l0.471-0.959c1.717-11.245,3.428-22.747,4.172-34.225
		c-8.31,7.34-16.372,15.155-25.158,21.019c-0.498,0-1.239,0-1.488-0.495v-1.455c12.484-21.507,21.765-44.464,28.35-68.416
		l0.982-0.477C324.266,37.442,333.794,40.362,342.826,44.515z"/>
	<path d="M830.234,73.088c0.484-0.722,1.217-0.234,1.95-0.722l15.144,0.227l0.5,0.495c0,4.42,0.223,9.539-0.25,13.95l-0.499,0.476
		l-16.594-0.249C830.234,82.395,829.985,77.996,830.234,73.088 M830.485,53.556c5.614-0.482,11.229-0.244,16.843-0.244l0.5,1.477
		l-0.25,13.178c-5.365,0.744-11.962,0.744-17.344,0C829.985,63.335,829.985,58.193,830.485,53.556z M846.845,91.424
		c2.434,1.217,0,5.369,2.694,6.609c5.381,1.455,10.762,0.249,16.599,0c0.995-0.495,2.71-0.979,2.947-2.444l0.224-34.713
		c0-3.155,3.676-3.416,5.391-5.614c0.495-0.722,0.235-1.95-0.237-2.683c-5.614-4.387-10.996-9.273-17.105-12.701
		c-3.936,2.438-6.351,6.103-9.528,9.269c-5.615,0.733-11.978-0.249-17.343,0.272c-7.569-2.932-14.899-5.615-22.725-7.341
		l-0.732,0.238l0.473,41.777l-0.473,71.104l-0.261,34.688l1.488,1.949c3.903,1.478,8.535,0,12.935,0
		c3.17-0.732,7.567,0.25,9.044-3.666V95.811l0.251-3.888C835.616,91.19,841.216,91.673,846.845,91.424z"/>
	<path d="M921.114,152.265c-0.249,4.881,0.495,10.248-0.722,14.906c-4.397,1.454-10.523,1.205-14.904,0.227
		c-0.5-18.064-0.735-37.134-0.5-55.688c3.432-1.217,8.797,1.455,11.007-2.198v-1.229c-4.644-3.925-9.058-7.824-13.689-11.229
		c1.217-1.466-0.982-5.631,2.188-5.382l15.899,0.25l0.473,1.949c-0.249,18.064,0.249,38.117,0.249,56.666
		c0.262,0.271,0.495,0,0.733,0C922.342,151.532,920.865,151.532,921.114,152.265 M903.05,72.854
		c5.37-0.711,11.208-0.261,16.848-0.487l0.719,0.982v13.432l-0.968,0.733c-5.604-0.249-10.996,0-16.361-0.249l-0.498-0.983
		L903.05,72.854z M903.05,53.807l0.732-0.495h16.61c0.473,4.881,0.473,9.785,0,14.655c-5.142,0.744-11.24,0.5-16.87,0.249
		l-0.473-0.982C902.789,62.851,902.789,57.944,903.05,53.807z M884.464,121.716c-6.098,1.228-11.479,0.246-17.594,0.246
		c-0.481-3.178-0.732-6.586-0.481-10.025c0.744-1.217,2.696-0.227,3.676-0.722h13.927l0.473,0.722V121.716z M884.464,136.138
		l-0.956,1.217l-16.638-0.249c-0.732-3.415-0.481-6.842-0.232-10.484c5.365-0.746,11.729-0.251,17.354-0.251l0.473,0.96V136.138z
		 M884.464,151.532l-0.956,0.484c-5.642,0.495-11.021,1.217-16.638,0.971c-0.732-3.159-0.481-7.567-0.232-11.245
		c5.365-0.732,11.729-0.473,17.354-0.227l0.473,0.722V151.532z M949.218,54.056c-5.145-5.158-11.482-9.046-17.108-13.456
		l-1.964-0.722c-3.666,2.438-6.087,6.337-9.28,9.269l-17.343,0.272c-7.069-2.932-13.928-5.886-21.492-7.602l-0.732,0.499
		c0.732,18.322,0,36.647,0,53.978c0.234,1.493,1.466,2.211,2.693,2.46c4.397,0,8.535-0.721,12.935-0.472
		c-1.466,3.155-4.161,6.076-6.576,8.773l-14.683,0.257c-13.429,0.238-27.354-0.257-40.312,0c0,1.466,0,3.181,1.488,3.902h8.797
		l0.706,0.722v41.533l-0.706,1.229c-3.193,0.744-6.858-0.235-9.79,0.971c2.199,6.598,5.629,12.956,9.045,19.314l0.956,0.489
		c12.224-5.37,24.45-11.479,36.414-17.594l2.198-0.482c0.249,5.116,0.249,9.774,0.249,15.64c0.249,3.404-0.498,6.585,1.478,9.033
		c5.131,1.217,10.263,0.483,15.371-0.521c5.127-0.7,2.932-6.565,4.171-9.992c7.817,3.183,10.984,11.479,12.45,19.06l1.217,1.217
		c5.381,0.744,10.746-0.979,15.643-3.177c6.336-2.688,8.559-9.273,9.27-15.394l-0.949-110.91
		C943.362,57.944,950.197,58.439,949.218,54.056z"/>
	<path d="M1067.288,40.967l-1.394,0.945c0,15.795,0,32.064,0,47.87l-0.451,1.408h-26.505c-1.41-0.476-3.736,0-2.793,1.845
		c0.476,1.404,1.383,3.26,2.793,3.732c8.842,0,18.125-1.404,26.956,0c0,26.495,0.921,52.527,0,79.483l-0.924,2.793
		c-13.004,1.383-26.505-0.462-39.993,0.462c0,1.864,0.473,4.182,2.799,5.13c33.931-0.948,65.545-0.948,99.476-0.476
		c1.406-0.473,2.789-1.855,2.316-3.733c-5.104-5.581-11.136-12.533-18.11-16.27c-5.581,4.209-7.912,10.238-12.556,14.887
		c-2.792,0-6.986,0.933-9.291-0.938c-0.476-26.951,0-55.789,0.922-81.339c10.686-1.877,22.791,0.449,34.403-0.473
		c0.943-0.483,2.315-0.932,2.315-2.328c-3.71-6.513-10.685-11.16-16.271-16.27c-8.357,1.86-9.763,19.52-20.925,12.545
		c-0.921-13.016,0-26.033,0.477-38.574c-0.477-2.804,2.339-3.726,4.184-5.109c0.471-0.945-0.45-2.343-1.396-2.803
		C1084.952,41.912,1076.13,40.967,1067.288,40.967 M1021.274,43.756c3.241,3.265-2.79,4.186-3.261,6.963
		c-0.473,6.515-0.926,13.044,0,19.519c3.261-0.449,3.736-6.03,7.437-4.16c5.579,3.711,12.078,7.897,16.276,13.017
		c0.473,3.25-3.261,2.777-5.105,4.655c-6.052,9.284-10.7,19.52-17.213,28.814c4.187,3.722,10.686,4.644,15.794,7.897
		c5.581,3.261,10.238,8.842,10.238,15.344c0,2.777-0.921,5.559-2.766,7.437c-2.343,2.331-5.592,2.78-8.867,2.331
		c-6.964-2.331-6.031-10.688-9.742-15.82c-1.87-3.238-3.274-6.491-6.052-8.819c-1.394,21.848-0.473,46.959-0.926,67.872
		c-0.922,3.715-5.128,2.306-7.437,3.255c-5.576,0-12.567,2.326-15.806-1.872c-0.473-18.12,0.923-36.257-0.473-53.91l-1.854,0.449
		c-6.964,3.736-13.938,9.79-21.862,12.096c-0.923-0.473,0-1.855,0.472-2.306c18.586-20.476,33.946-42.327,42.304-66.961
		l-0.923-0.935h-33.469c-0.938-1.396-1.383-3.229-1.383-4.646c5.082-1.855,11.136,0.472,16.715-0.934l0.945-1.859l-0.473-28.823
		l0.923-1.394C1004.075,41.439,1012.905,42.361,1021.274,43.756z"/>
</g>
</svg>
